# xmcd CD database file
#
# Track frame offsets:
#	150
#	12901
#	27054
#	37952
#	51728
#	64998
#	78578
#	94140
#	107175
#	124850
#	135271
#	147652
#	161648
#	176595
#	190436
#	207014
#	220092
#	233424
#	244976
#	258601
#
# Disc length: 3594 seconds
#
# Revision: 0
# Processed by: cddbd v1.5.2PL0 Copyright (c) Steve Scherf et al.
# Submitted via: CDex 1.51
#
DISCID=240e0814
DTITLE=Heart Of Texas - 25th Anniversary Collection Vol. 2
DYEAR=2014
DGENRE=Country
TTITLE0=April First
TTITLE1=Storms Never Last
TTITLE2=Jambalaya
TTITLE3=Please Come Back With My Heart
TTITLE4=When Loving Me Was Wrong
TTITLE5=Second Time Around
TTITLE6=An Old Memory Got In My Eye
TTITLE7=Before This Day Ends
TTITLE8=I Don't Want To Cry
TTITLE9=If You Were Me
TTITLE10=Deep As Your Pocket
TTITLE11=Don't Leave The Leaving Up To Me
TTITLE12=Invitation To The Blues
TTITLE13=Faded Love
TTITLE14=This Cold War With You
TTITLE15=I'm Gonna Break Every Heart I Can
TTITLE16=You Lay So Easy On My Mind
TTITLE17=There's Something About A Lady
TTITLE18=Sometimes I Talk In My Sleep
TTITLE19=I'll Be There
EXTD=YEAR: 2014
EXTT0=
EXTT1=
EXTT2=
EXTT3=
EXTT4=
EXTT5=
EXTT6=
EXTT7=
EXTT8=
EXTT9=
EXTT10=
EXTT11=
EXTT12=
EXTT13=
EXTT14=
EXTT15=
EXTT16=
EXTT17=
EXTT18=
EXTT19=
PLAYORDER=
